<svg width="250" height="150" viewBox="0 0 250 150" fill="none" xmlns="http://www.w3.org/2000/svg">
<path d="M26.7081 83.1189C26.3213 81.9457 26.1294 80.4648 26.1294 78.4737C26.1294 76.4818 26.3213 74.9979 26.7081 73.8277C27.7887 70.4701 30.6512 68.6355 34.3994 68.6355C37.1829 68.6355 39.3869 69.768 40.8573 71.5642C40.971 71.7192 41.0093 71.9533 40.8182 72.109L38.3839 74.2567C38.1897 74.4139 37.9971 74.3748 37.8413 74.1799C36.9127 73.1264 35.9465 72.5395 34.4001 72.5395C32.7386 72.5395 31.4639 73.3597 30.9213 74.9994C30.6143 75.9385 30.5353 77.0304 30.5353 78.4744C30.5353 79.9185 30.6135 81.0502 30.9213 81.9879C31.4631 83.5869 32.7386 84.4072 34.4001 84.4072C35.9465 84.4072 36.9127 83.821 37.8413 82.7697C37.9971 82.5718 38.1897 82.5718 38.3839 82.7283L40.8182 84.876C41.0093 85.0317 40.971 85.2274 40.8573 85.423C39.3877 87.1809 37.1836 88.3119 34.3994 88.3119C30.6512 88.3104 27.7887 86.4743 26.7081 83.1189" fill="white"/>
<path d="M111.169 83.1189C110.782 81.9457 110.59 80.4648 110.59 78.4737C110.59 76.4818 110.782 74.9979 111.169 73.8277C112.251 70.4701 115.111 68.6355 118.859 68.6355C121.643 68.6355 123.848 69.768 125.316 71.5642C125.431 71.7192 125.471 71.9533 125.276 72.109L122.841 74.2567C122.648 74.4139 122.456 74.3748 122.301 74.1799C121.374 73.1264 120.407 72.5395 118.859 72.5395C117.198 72.5395 115.922 73.3597 115.382 74.9994C115.072 75.9385 114.996 77.0304 114.996 78.4744C114.996 79.9185 115.072 81.0502 115.382 81.9879C115.922 83.5869 117.198 84.4072 118.859 84.4072C120.407 84.4072 121.374 83.821 122.301 82.7697C122.456 82.5718 122.649 82.5718 122.841 82.7283L125.276 84.876C125.471 85.0317 125.431 85.2274 125.316 85.423C123.848 87.1809 121.643 88.3119 118.859 88.3119C115.111 88.3104 112.251 86.4743 111.169 83.1189Z" fill="white"/>
<path d="M208.787 87.8822C208.555 87.8822 208.401 87.7272 208.401 87.4909V76.6391C208.401 74.2183 207.201 72.5387 204.881 72.5387C202.639 72.5387 201.326 74.2175 201.326 76.6391V87.4909C201.326 87.7264 201.17 87.8822 200.94 87.8822H197.382C197.15 87.8822 196.994 87.7272 196.994 87.4909V76.6391C196.994 74.2183 195.796 72.5387 193.48 72.5387C191.237 72.5387 189.921 74.2175 189.921 76.6391V87.4909C189.921 87.7264 189.767 87.8822 189.535 87.8822H185.978C185.745 87.8822 185.592 87.7272 185.592 87.4909V69.455C185.592 69.2202 185.745 69.0637 185.978 69.0637H189.535C189.767 69.0637 189.921 69.2202 189.921 69.455V70.8215H189.961C190.773 69.6499 192.396 68.6355 194.869 68.6355C197.073 68.6355 198.851 69.5317 199.97 71.133H200.01C201.44 69.5731 203.296 68.6355 205.964 68.6355C210.292 68.6355 212.729 71.6019 212.729 75.6232V87.4901C212.729 87.7264 212.573 87.8822 212.341 87.8822H208.787V87.8822Z" fill="white"/>
<path d="M218.1 94.9082C217.869 94.9082 217.715 94.7517 217.715 94.5162V91.3941C217.715 91.1608 217.869 91.002 218.1 91.002H218.797C220.265 91.002 221.001 90.3413 221.58 88.7784L222.122 87.1778L215.318 69.4542C215.24 69.2194 215.395 69.0629 215.629 69.0629H219.454C219.686 69.0629 219.841 69.2194 219.916 69.4542L224.132 81.7515H224.208L228.229 69.4542C228.307 69.2194 228.462 69.0629 228.691 69.0629H232.363C232.597 69.0629 232.752 69.2194 232.673 69.4542L225.562 89.0515C223.939 93.5026 222.391 94.9067 219.299 94.9067L218.1 94.9082V94.9082Z" fill="white"/>
<path d="M44.4135 83.1204C43.9883 81.7907 43.7949 80.5423 43.7949 78.4737C43.7949 76.4081 43.9883 75.1582 44.4135 73.8338C45.4572 70.5544 48.3152 68.6407 52.1025 68.6407C55.85 68.6407 58.7095 70.5536 59.7532 73.8338C60.1761 75.1582 60.371 76.4081 60.371 78.4737C60.371 80.5423 60.1761 81.7907 59.7532 83.1204C58.7087 86.3975 55.85 88.3096 52.1025 88.3096C48.3152 88.3103 45.4572 86.3982 44.4135 83.1204V83.1204ZM55.5798 81.9495C55.8899 80.975 55.9666 80.0757 55.9666 78.4744C55.9666 76.8776 55.8899 76.0175 55.5798 75.0039C55.0395 73.444 53.8408 72.544 52.1025 72.544C50.365 72.544 49.1264 73.444 48.5868 75.0039C48.2791 76.0183 48.2008 76.8776 48.2008 78.4744C48.2008 80.0757 48.2791 80.975 48.5868 81.9495C49.1264 83.5124 50.3658 84.4071 52.1025 84.4071C53.8408 84.4064 55.0395 83.5117 55.5798 81.9495Z" fill="white"/>
<path d="M135.674 68.6355C132.62 68.6355 130.573 69.3767 129.064 70.4701C128.911 70.589 128.871 70.7816 128.988 70.9765L130.415 73.5546C130.535 73.7502 130.764 73.7894 130.959 73.6329C131.848 72.9315 133.122 72.3438 135.211 72.3438C138.256 72.3438 139.29 73.2679 139.343 75.2989H139.344V75.3237C139.345 75.3711 139.345 75.4193 139.345 75.4697V81.5604C139.345 83.7073 137.877 84.7593 135.211 84.7593C133.122 84.7593 132.002 83.9805 132.002 82.4198C132.002 80.662 133.24 79.8794 136.022 79.8794L136.868 79.8809C137.1 79.8809 137.255 79.7243 137.255 79.4918V76.989C137.255 76.7557 137.1 76.6 136.868 76.6H136.682L135.327 76.5992C130.728 76.5992 127.864 78.4759 127.864 82.5726C127.864 86.5164 130.728 88.3111 134.127 88.3111C136.754 88.3111 138.494 87.4141 139.384 86.1259H139.421V87.4924C139.421 87.7272 139.578 87.8837 139.809 87.8837H143.055C143.287 87.8837 143.443 87.7279 143.443 87.4924V75.195C143.443 70.589 141.357 68.6355 135.674 68.6355Z" fill="white"/>
<path d="M89.4928 76.5977C89.3919 76.5977 89.3257 76.6647 89.3257 76.7655V76.8769V77.2034V79.2713V79.549V79.7093C89.3257 79.8101 89.3919 79.8778 89.4928 79.8778H89.5891H99.0646C99.3355 79.8778 99.4905 79.7228 99.4905 79.4903C99.4905 76.4427 99.2956 75.1536 98.8719 73.8277C97.8267 70.6266 95.0447 68.6362 91.2175 68.6362C87.5069 68.6362 84.6474 70.5483 83.6022 73.8277C83.2177 75.0377 82.9836 76.5217 82.9836 78.4737C82.9836 80.4257 83.2545 81.8689 83.6436 83.0805C84.6865 86.3584 87.4685 88.3103 91.4109 88.3103C94.8498 88.3103 97.4806 86.9829 99.0638 85.1092C99.2173 84.9151 99.2173 84.7202 99.0247 84.5621L96.7461 82.5327C96.5512 82.3769 96.3586 82.4175 96.1644 82.6109C95.2381 83.6268 93.8851 84.4071 91.7977 84.4071C89.7125 84.4071 88.2421 83.3928 87.6236 81.5589C87.5302 81.3023 87.4527 81.0329 87.4038 80.7402H87.4031C87.2624 79.9456 87.1796 79.172 87.1796 78.0357C87.2097 76.9649 87.2714 76.2809 87.4234 75.4117C87.4249 75.3997 87.4272 75.3892 87.4294 75.3779C87.4309 75.3688 87.4324 75.3621 87.4339 75.353V75.3538C87.4708 75.1491 87.5212 74.9565 87.5837 74.7646C88.0863 73.2423 89.4777 72.3446 91.2574 72.3446C92.9972 72.3446 94.3863 73.2423 94.8889 74.7646C95.0447 75.2357 95.1207 75.7015 95.1207 76.3667C95.1207 76.5224 95.044 76.5992 94.8889 76.5992H89.8103L89.8111 76.5984L89.4928 76.5977V76.5977Z" fill="white"/>
<path d="M79.3928 61.3369H75.8425C75.6084 61.3369 75.4542 61.4927 75.4542 61.7245V70.8455V78.3886C75.4542 78.4089 75.4542 78.4292 75.4542 78.4488C75.4542 78.4691 75.4542 78.4894 75.4542 78.509V79.5105H75.4346C75.3932 80.5866 75.2766 81.294 75.0696 81.9569C74.5677 83.5146 73.369 84.3717 71.5954 84.3717C69.8586 84.3717 68.6629 83.5146 68.1587 81.9569C67.8893 81.0983 67.7749 80.1637 67.7749 78.4488C67.7749 76.7346 67.8893 75.7977 68.1587 74.9421C68.6531 73.4138 69.8104 72.5507 71.49 72.5168H73.0055C73.0793 72.4987 73.1274 72.4408 73.1274 72.3565L73.147 68.7927C73.147 68.7016 73.0898 68.6407 73.0055 68.6301L71.7955 68.6256H70.3733V68.6264C67.2617 68.6595 64.9839 70.1765 64.0297 73.1451C63.5662 74.5892 63.3735 75.9166 63.3735 78.4488C63.3735 80.9817 63.5662 82.3076 64.0297 83.7486C64.9944 86.7511 67.3106 88.2712 70.4749 88.2712C72.9852 88.2712 74.5293 87.3373 75.415 86.049H75.4527V87.4524C75.4527 87.6872 75.6077 87.843 75.841 87.843H79.3913C79.623 87.843 79.778 87.688 79.778 87.4524V61.7245C79.7795 61.4919 79.6245 61.3369 79.3928 61.3369" fill="white"/>
<path d="M172.466 76.5977C172.367 76.5977 172.299 76.6647 172.299 76.7655V76.8769V77.2034V79.2713V79.549V79.7093C172.299 79.8101 172.367 79.8778 172.466 79.8778H172.564H182.04C182.31 79.8778 182.465 79.7228 182.465 79.4903C182.465 76.4427 182.271 75.1536 181.847 73.8277C180.802 70.6266 178.019 68.6362 174.194 68.6362C170.482 68.6362 167.623 70.5483 166.578 73.8277C166.192 75.0377 165.959 76.5217 165.959 78.4737C165.959 80.4257 166.23 81.8689 166.619 83.0805C167.661 86.3584 170.444 88.3103 174.386 88.3103C177.825 88.3103 180.456 86.9829 182.04 85.1092C182.193 84.9151 182.193 84.7202 182 84.5621L179.721 82.5327C179.527 82.3769 179.335 82.4175 179.141 82.6109C178.214 83.6268 176.862 84.4071 174.773 84.4071C172.688 84.4071 171.218 83.3928 170.599 81.5589C170.506 81.3023 170.428 81.0329 170.381 80.7402H170.38C170.238 79.9456 170.156 79.172 170.156 78.0357C170.184 76.9649 170.246 76.2809 170.399 75.4117C170.402 75.3997 170.403 75.3892 170.405 75.3779C170.406 75.3688 170.408 75.3621 170.409 75.353V75.3538C170.448 75.1491 170.497 74.9565 170.56 74.7646C171.062 73.2423 172.454 72.3446 174.233 72.3446C175.973 72.3446 177.362 73.2423 177.865 74.7646C178.02 75.2357 178.098 75.7015 178.098 76.3667C178.098 76.5224 178.02 76.5992 177.865 76.5992H172.786V76.5984L172.466 76.5977V76.5977Z" fill="white"/>
<path d="M162.55 61.3369H158.993C158.76 61.3369 158.605 61.4934 158.605 61.7252V70.8591V78.4142V78.4736V78.5346V79.5376H158.587C158.544 80.6152 158.427 81.3233 158.22 81.987C157.718 83.5477 156.517 84.4071 154.741 84.4071C153.003 84.4071 151.805 83.5477 151.3 81.987C151.032 81.1269 150.914 80.1916 150.914 78.4736C150.914 76.7571 151.03 75.818 151.3 74.9617C151.795 73.4311 152.954 72.5748 154.637 72.5409L156.155 72.5416C156.387 72.5416 156.542 72.3859 156.542 72.1534V69.0252C156.542 68.7919 156.387 68.6362 156.155 68.6362H155.969L153.674 68.6354C153.656 68.6354 153.638 68.6354 153.621 68.6354C153.604 68.6354 153.588 68.6354 153.571 68.6354H153.519V68.6362C150.403 68.6685 148.122 70.1886 147.167 73.1617C146.702 74.608 146.51 75.9362 146.51 78.4721C146.51 81.0088 146.702 82.3377 147.167 83.781C148.132 86.7865 150.453 88.3095 153.622 88.3095C156.135 88.3095 157.681 87.3749 158.569 86.0844H158.607V87.4893C158.607 87.7256 158.762 87.8806 158.995 87.8806H162.552C162.783 87.8806 162.939 87.7263 162.939 87.4893V61.7252C162.936 61.4927 162.781 61.3369 162.55 61.3369" fill="white"/>
<path d="M110.878 93.2047V96.7617C110.878 96.9958 111.033 97.1508 111.265 97.1508H124.446C124.682 97.1508 124.838 96.995 124.838 96.7617V93.2047C124.838 92.9736 124.682 92.8179 124.446 92.8179H111.265C111.033 92.8179 110.878 92.9736 110.878 93.2047" fill="white"/>
<path d="M107.532 52.1257C107.526 52.1196 107.522 52.1121 107.517 52.1069C107.516 52.1061 107.515 52.1061 107.515 52.1061C107.447 52.0391 107.351 52 107.237 52H107.232H18.3883C18.3589 52 18.3311 52.003 18.304 52.0075C18.2965 52.009 18.2897 52.012 18.2814 52.0135C18.2641 52.0181 18.2453 52.0218 18.2295 52.0286C18.2265 52.0293 18.2242 52.0309 18.222 52.0324C18.0843 52.0888 18 52.2175 18 52.3875V52.389V96.7565V96.7595C18 96.8949 18.0527 97.001 18.1415 97.0687C18.1482 97.0755 18.1543 97.0815 18.1633 97.086V97.0868C18.225 97.1259 18.3002 97.147 18.3883 97.147H107.231H107.236C107.367 97.147 107.473 97.0966 107.54 97.01C107.593 96.9453 107.624 96.8603 107.624 96.7587V96.7557V52.389V52.3875C107.624 52.2814 107.59 52.1919 107.532 52.1257V52.1257ZM22.7152 92.8164C22.6873 92.8164 22.6602 92.8141 22.6362 92.8103C22.6286 92.8088 22.6204 92.8051 22.6128 92.8028C22.5948 92.7991 22.5767 92.7953 22.5602 92.7885C22.5571 92.7878 22.5556 92.7855 22.5526 92.7848C22.4157 92.7291 22.3321 92.6011 22.3314 92.4326V60.2737V56.7182C22.3314 56.5474 22.4157 56.4202 22.5526 56.363C22.5564 56.3622 22.5586 56.36 22.5609 56.3592C22.5767 56.3532 22.6279 56.3404 22.6362 56.3382C22.6617 56.3344 22.6888 56.3321 22.7167 56.3321H102.906C102.935 56.3321 102.961 56.3344 102.987 56.3382C102.995 56.3404 103.002 56.3434 103.009 56.3457C103.027 56.3495 103.045 56.3532 103.062 56.36C103.066 56.3607 103.067 56.363 103.07 56.3637C103.208 56.4202 103.291 56.5481 103.291 56.7189V92.4333C103.291 92.6027 103.206 92.7306 103.071 92.7863C103.068 92.787 103.066 92.7893 103.063 92.79C103.047 92.796 103.028 92.8006 103.011 92.8043C103.002 92.8066 102.996 92.8103 102.987 92.8118C102.962 92.8164 102.937 92.8179 102.909 92.8179H22.7152V92.8164V92.8164Z" fill="white"/>
</svg>
