<svg width="250" height="150" viewBox="0 0 250 150" fill="none" xmlns="http://www.w3.org/2000/svg">
<g clip-path="url(#clip0)">
<path fill-rule="evenodd" clip-rule="evenodd" d="M109.048 74.4137C109.048 90.7476 95.8286 103.991 79.5246 103.991C63.2191 103.991 50 90.7476 50 74.4137C50 58.0784 63.2191 44.8369 79.5246 44.8369C95.8286 44.8369 109.048 58.0784 109.048 74.4137ZM98.2405 66.5528C97.854 66.3274 97.3793 66.3274 96.9928 66.5528L81.0708 75.8465C80.6828 76.0734 80.447 76.4898 80.447 76.9391V81.8389C80.447 82.2897 80.6828 82.7046 81.0708 82.9299C81.4529 83.1538 81.9215 83.1538 82.3051 82.9359C82.3081 82.9329 82.3111 82.9314 82.3171 82.9299L87.5557 79.8703V91.2312C87.5557 91.6819 87.7915 92.0969 88.1766 92.3222C88.3706 92.4342 88.5855 92.4924 88.8005 92.4924C89.0154 92.4924 89.2303 92.4342 89.4243 92.3222L92.5541 90.4954C92.9407 90.27 93.178 89.8536 93.178 89.4044V76.5883L98.2405 73.6317C98.6256 73.4063 98.8629 72.9914 98.8629 72.5407V67.6438C98.8629 67.1945 98.6256 66.7781 98.2405 66.5528ZM81.0708 63.5842L86.0886 66.514C86.1155 66.5304 86.1319 66.5572 86.1319 66.5871V70.2258C86.1319 70.6094 86.5423 70.8511 86.8737 70.6571C88.8229 69.5213 94.0705 66.4647 96.0048 65.3394C96.3301 65.1513 96.3256 64.6812 95.9988 64.4901L82.3171 56.5053C81.932 56.2799 81.4559 56.2799 81.0708 56.5053C80.6828 56.7306 80.447 57.1455 80.447 57.5963V62.4932C80.447 62.9424 80.6828 63.3588 81.0708 63.5842ZM78.247 56.5038C77.862 56.2784 77.3858 56.2784 77.0008 56.5038L63.3116 64.4946C62.9892 64.6841 62.9817 65.1468 63.3056 65.3364C65.2369 66.4587 70.5189 69.5363 72.4591 70.6661C72.7845 70.8556 73.186 70.6183 73.186 70.2407V66.5393L78.0022 63.7275C78.5395 63.4125 78.8709 62.8349 78.8709 62.2126V57.5948C78.8709 57.1455 78.6336 56.7291 78.247 56.5038ZM77.9784 75.8465L62.0534 66.5542C61.6698 66.3289 61.1937 66.3289 60.8087 66.5542C60.4236 66.7781 60.1848 67.193 60.1848 67.6423V72.5407C60.1848 72.9914 60.4236 73.4078 60.8087 73.6317L65.8697 76.5868V89.4044C65.8697 89.8536 66.107 90.2685 66.4921 90.4939L69.6249 92.3237C69.8189 92.4342 70.0338 92.4924 70.2487 92.4924C70.4636 92.4924 70.6786 92.4342 70.8711 92.3237C71.2547 92.0983 71.4935 91.6819 71.4935 91.2327V79.8718L76.7321 82.9314C76.7366 82.9329 76.7396 82.9344 76.7426 82.9359C77.1276 83.1538 77.5963 83.1523 77.9784 82.9314C78.3634 82.7061 78.6022 82.2897 78.6022 81.8404V76.9376C78.6022 76.4898 78.3634 76.0719 77.9784 75.8465Z" fill="white"/>
<path fill-rule="evenodd" clip-rule="evenodd" d="M125.879 82.5845C130.33 82.5845 133.203 79.0742 133.203 74.5773C133.203 70.1222 130.33 66.6118 125.879 66.6118H121.747V82.5845H125.879ZM115.606 61.5642C115.606 61.1687 115.921 60.8149 116.314 60.8149H125.92C133.516 60.8149 139.739 67.0058 139.739 74.5773C139.739 82.2293 133.516 88.4202 125.92 88.4202H116.314C115.921 88.4202 115.606 88.0665 115.606 87.6709V61.5642Z" fill="white"/>
<path fill-rule="evenodd" clip-rule="evenodd" d="M143.09 71.0595C143.09 70.5461 143.482 70.1909 143.954 70.1909H145.845C146.32 70.1909 146.554 70.4282 146.672 70.7431L147.499 72.755C148.285 71.2953 149.663 69.7969 152.025 69.7969C153.681 69.7969 154.9 70.2312 155.569 70.7431C155.885 70.9804 155.885 71.3744 155.688 71.7297L153.875 75.3176C153.681 75.6743 153.366 75.9504 152.852 75.7519C152.537 75.634 151.869 75.4758 151.475 75.4758C150.096 75.4758 149.073 76.4639 149.073 78.0011V87.5442C149.073 88.0964 148.758 88.4128 148.09 88.4128H143.954C143.482 88.4128 143.09 88.0173 143.09 87.5442V71.0595Z" fill="white"/>
<path fill-rule="evenodd" clip-rule="evenodd" d="M159.275 71.0684C159.275 70.555 159.667 70.1998 160.139 70.1998H164.391C164.866 70.1998 165.257 70.555 165.257 71.0684V87.553C165.257 88.0262 164.866 88.4217 164.391 88.4217H160.139C159.667 88.4217 159.275 88.0262 159.275 87.553V71.0684ZM158.84 64.285C158.84 62.3925 160.336 60.8149 162.225 60.8149C164.115 60.8149 165.652 62.3925 165.652 64.285C165.652 66.1387 164.115 67.676 162.225 67.676C160.336 67.676 158.84 66.1387 158.84 64.285Z" fill="white"/>
<path fill-rule="evenodd" clip-rule="evenodd" d="M170.936 75.5987H169.362C168.85 75.5987 168.496 75.2032 168.496 74.7301V71.063C168.496 70.5496 168.85 70.1959 169.362 70.1959H170.936V68.6974C170.936 63.805 173.494 60.4141 178.77 60.4141C181.132 60.4141 183.535 61.3991 184.323 62.1483C184.597 62.3483 184.675 62.8215 184.479 63.1737L182.551 66.5661C182.352 66.8825 181.92 67.0005 181.564 66.802C180.975 66.4482 180.111 66.0945 179.203 66.0945C177.156 66.0945 176.918 67.2378 176.918 68.6974V70.1959H181.488C181.958 70.1959 182.352 70.5496 182.352 71.063V74.7301C182.352 75.2032 181.958 75.5987 181.488 75.5987H176.918V87.5492C176.918 88.0223 176.487 88.4163 176.017 88.4163H171.802C171.369 88.4163 170.936 88.0223 170.936 87.5492V75.5987Z" fill="white"/>
<path fill-rule="evenodd" clip-rule="evenodd" d="M187.889 75.1598H186.393C185.959 75.1598 185.604 74.7643 185.604 74.2912V70.6241C185.604 70.1122 185.959 69.757 186.393 69.757H187.889V64.7094C187.889 64.2362 188.283 63.8392 188.754 63.8392H193.084C193.52 63.8392 193.872 64.2362 193.872 64.7094V69.757H197.535C198.005 69.757 198.399 70.1122 198.399 70.6241V74.2912C198.399 74.7643 198.005 75.1598 197.535 75.1598H193.872V81.5089C193.872 82.3775 194.305 82.7701 195.094 82.7701C195.723 82.7701 196.903 82.494 197.338 82.3775C197.809 82.2581 198.242 82.4552 198.361 82.9298L199.148 86.361C199.266 86.9132 199.067 87.1491 198.558 87.3864C197.338 87.8983 195.29 88.4117 193.36 88.4117C189.897 88.4117 187.889 86.2028 187.889 82.0626V75.1598Z" fill="white"/>
</g>
<defs>
<clipPath id="clip0">
<rect width="149.25" height="149.25" fill="white" transform="translate(50)"/>
</clipPath>
</defs>
</svg>
