<svg width="250" height="150" viewBox="0 0 250 150" fill="none" xmlns="http://www.w3.org/2000/svg">
<g clip-path="url(#clip0)">
<path d="M96.3494 57.7333H76.8939V68.5344H93.7553V76.2678H76.8939V95.633H68V53.7069C68 52.5991 68.3706 51.7043 69.1117 51.0226C69.8529 50.3409 70.7382 50 71.7676 50H96.3494V57.7333Z" fill="white"/>
<path d="M111.696 62.8463C115.855 62.8463 119.17 64.018 121.64 66.3615C124.111 68.6623 125.346 71.9217 125.346 76.1401V95.6331H117.935V91.4787C115.588 94.7596 112.252 96.4 107.929 96.4C104.758 96.4 102.185 95.5053 100.209 93.7158C98.2733 91.8836 97.3057 89.4762 97.3057 86.4936C97.3057 82.8294 98.7261 80.1664 101.567 78.5047C104.408 76.8005 108.011 75.9483 112.376 75.9483C114.229 75.9483 115.979 76.0761 117.626 76.3316V75.8843C117.626 73.8817 117.029 72.3691 115.835 71.3465C114.641 70.2815 113.055 69.7488 111.079 69.7488C107.867 69.7488 104.738 70.9632 101.691 73.3918L98.1086 67.9593C101.608 64.5506 106.138 62.8463 111.696 62.8463ZM109.967 89.945C112.191 89.945 113.982 89.1566 115.341 87.5802C116.699 86.0037 117.461 83.9584 117.626 81.4447C116.02 81.3167 114.476 81.2529 112.994 81.2529C108.094 81.2529 105.644 82.8081 105.644 85.9185C105.644 87.1115 106.035 88.0915 106.817 88.8585C107.6 89.5827 108.649 89.945 109.967 89.945Z" fill="white"/>
<path d="M142.889 96.336C137.537 96.336 133.234 94.7171 129.981 91.4787L133.316 85.9825C136.322 88.4962 139.39 89.7532 142.519 89.7532C143.878 89.7532 145.01 89.4762 145.916 88.9223C146.863 88.3684 147.336 87.6014 147.336 86.6214C147.336 86.2806 147.275 85.9612 147.151 85.6629C147.028 85.3646 146.822 85.0877 146.534 84.8319C146.286 84.5763 146.039 84.3633 145.792 84.1928C145.545 84.0224 145.175 83.8307 144.681 83.6176C144.187 83.4045 143.775 83.2555 143.445 83.1702C143.157 83.0424 142.684 82.8721 142.025 82.6591C141.407 82.446 140.954 82.2967 140.666 82.2117C137.784 81.1889 135.56 79.9961 133.996 78.6325C132.472 77.2691 131.71 75.3516 131.71 72.8804C131.71 69.7276 132.863 67.2775 135.169 65.5306C137.516 63.7411 140.522 62.8463 144.187 62.8463C148.634 62.8463 152.504 64.0819 155.798 66.5532L152.586 71.9857C149.745 70.1962 147.069 69.3014 144.557 69.3014C143.198 69.3014 142.107 69.5783 141.284 70.1322C140.46 70.6436 140.048 71.3253 140.048 72.1775C140.048 72.8592 140.357 73.4771 140.975 74.031C141.593 74.5421 142.148 74.9043 142.642 75.1173C143.178 75.2878 144.125 75.6074 145.484 76.0761C146.884 76.5447 147.913 76.907 148.572 77.1626C149.272 77.4182 150.198 77.8655 151.351 78.5047C152.504 79.1011 153.348 79.719 153.883 80.3582C154.46 80.9546 154.975 81.7643 155.427 82.7868C155.88 83.7669 156.107 84.8747 156.107 86.1102C156.107 89.3059 154.83 91.8198 152.278 93.6518C149.725 95.4413 146.595 96.336 142.889 96.336Z" fill="white"/>
<path d="M181.344 86.8771L184 93.0766C181.241 95.2496 178.009 96.336 174.303 96.336C170.968 96.336 168.374 95.3134 166.521 93.2683C164.668 91.2231 163.742 88.347 163.742 84.6403V69.6848H159.109V63.6771H163.742V53.7708H172.141V63.6771H182.147V69.6848H172.141V83.8733C172.141 85.5775 172.553 86.7919 173.377 87.5163C174.241 88.2405 175.25 88.6026 176.403 88.6026C178.009 88.6026 179.656 88.0275 181.344 86.8771Z" fill="white"/>
</g>
<defs>
<clipPath id="clip0">
<rect width="116" height="46.4" fill="white" transform="translate(68 50)"/>
</clipPath>
</defs>
</svg>
