<svg width="250" height="150" viewBox="0 0 250 150" fill="none" xmlns="http://www.w3.org/2000/svg">
<path fill-rule="evenodd" clip-rule="evenodd" d="M109.296 90.3686H109.217C109.253 90.3686 109.277 90.4041 109.312 90.412C109.316 90.412 109.332 90.408 109.336 90.408L109.296 90.3686ZM109.312 90.412C108.944 90.4159 108.019 90.6049 107.042 90.6049C103.956 90.6049 102.888 89.1873 102.888 87.3366V75.0123H109.178C109.534 75.0123 109.811 74.6973 109.811 74.2641V67.5704C109.811 67.216 109.494 66.901 109.178 66.901H102.888V58.5929C102.888 58.2779 102.691 58.081 102.335 58.081H93.7907C93.4347 58.081 93.2369 58.2779 93.2369 58.5929V67.1373C93.2369 67.1373 88.9253 68.2004 88.6484 68.2398C88.332 68.3185 88.1342 68.5941 88.1342 68.9091V74.2641C88.1342 74.6973 88.4507 75.0123 88.8067 75.0123H93.1973V87.9273C93.1973 97.5349 99.9218 98.5193 104.51 98.5193C106.607 98.5193 109.138 97.8499 109.534 97.653C109.771 97.5743 109.89 97.2986 109.89 97.023V91.1168C109.89 90.727 109.621 90.4671 109.312 90.412ZM203.043 81.7454C203.043 74.6185 200.156 73.6735 197.11 73.9885C194.736 74.146 192.838 75.3273 192.838 75.3273V89.1873C192.838 89.1873 194.776 90.5261 197.664 90.6049C201.738 90.723 203.043 89.266 203.043 81.7454ZM212.655 81.1154C212.655 94.6211 208.264 98.4799 200.591 98.4799C194.104 98.4799 190.623 95.2118 190.623 95.2118C190.623 95.2118 190.464 97.023 190.267 97.2593C190.148 97.4955 189.95 97.5743 189.713 97.5743H183.859C183.463 97.5743 183.107 97.2593 183.107 96.9049L183.186 53.1591C183.186 52.8048 183.503 52.4898 183.859 52.4898H192.284C192.64 52.4898 192.956 52.8048 192.956 53.1591V68.0035C192.956 68.0035 196.2 65.9166 200.947 65.9166L200.907 65.8379C205.654 65.8379 212.655 67.6098 212.655 81.1154ZM178.163 66.901H178.123H169.856C169.421 66.901 169.184 67.216 169.184 67.6491V89.0692C169.184 89.0692 167.008 90.6049 164.041 90.6049C161.075 90.6049 160.204 89.266 160.204 86.3129V67.6098C160.204 67.2554 159.888 66.9404 159.532 66.9404H151.067C150.711 66.9404 150.395 67.2554 150.395 67.6098V87.7304C150.395 96.393 155.26 98.5586 161.945 98.5586C167.443 98.5586 171.913 95.5268 171.913 95.5268C171.913 95.5268 172.111 97.0624 172.229 97.2986C172.308 97.4955 172.585 97.653 172.862 97.653H178.163C178.598 97.653 178.835 97.338 178.835 96.9836L178.914 67.5704C178.914 67.216 178.598 66.901 178.163 66.901ZM84.416 66.8616H75.9907C75.6347 66.8616 75.3182 67.216 75.3182 67.6491V96.5505C75.3182 97.338 75.8324 97.6136 76.5049 97.6136H84.0996C84.8907 97.6136 85.0884 97.2593 85.0884 96.5505V67.5704V67.531C85.0884 67.1766 84.772 66.8616 84.416 66.8616ZM80.2627 53.5529C77.2169 53.5529 74.804 55.9548 74.804 58.9866C74.804 62.0185 77.2169 64.4204 80.2627 64.4204C83.2293 64.4204 85.6422 62.0185 85.6422 58.9866C85.6422 55.9548 83.2293 53.5529 80.2627 53.5529ZM145.49 52.5685H137.144C136.788 52.5685 136.471 52.8835 136.471 53.2379V69.3423H123.378V53.2379C123.378 52.8835 123.062 52.5685 122.706 52.5685H114.28C113.924 52.5685 113.608 52.8835 113.608 53.2379V96.9836C113.608 97.338 113.964 97.653 114.28 97.653H122.706C123.062 97.653 123.378 97.338 123.378 96.9836V78.2804H136.471L136.392 96.9836C136.392 97.338 136.708 97.653 137.064 97.653H145.49C145.846 97.653 146.162 97.338 146.162 96.9836V53.2379C146.162 52.8835 145.846 52.5685 145.49 52.5685ZM70.8484 71.941V94.5424C70.8484 94.6999 70.8089 94.9755 70.6111 95.0543C70.6111 95.0543 65.6667 98.5586 57.5182 98.5586C47.6689 98.5586 36 95.4874 36 75.2485C36 55.0098 46.2053 50.836 56.1733 50.8754C64.7964 50.8754 68.2773 52.8048 68.8311 53.1591C68.9893 53.356 69.0684 53.5135 69.0684 53.7104L67.4071 60.7191C67.4071 61.0735 67.0511 61.5066 66.616 61.3885C65.192 60.9554 63.056 60.0891 58.0324 60.0891C52.2178 60.0891 45.968 61.7429 45.968 74.776C45.968 87.8091 51.9013 89.3448 56.1733 89.3448C59.8124 89.3448 61.1178 88.9117 61.1178 88.9117V79.8554H55.3031C54.868 79.8554 54.5516 79.5404 54.5516 79.186V71.941C54.5516 71.5866 54.868 71.2716 55.3031 71.2716H70.0969C70.532 71.2716 70.8484 71.5866 70.8484 71.941Z" fill="white"/>
</svg>
