<svg width="250" height="150" viewBox="0 0 250 150" fill="none" xmlns="http://www.w3.org/2000/svg">
<path d="M63.8821 85.281C64.461 86.8316 65.2626 88.1575 66.2868 89.2585C67.3111 90.3597 68.5246 91.2023 69.9272 91.7867C71.33 92.371 72.8552 92.663 74.5029 92.663C76.1062 92.663 77.609 92.3596 79.0118 91.7528C80.4146 91.146 81.6392 90.2921 82.6856 89.1911C83.7321 88.0899 84.5449 86.7754 85.1238 85.2473C85.7027 83.7192 85.9921 82.0114 85.9921 80.1237V51H93.0059V98.191H86.0589V93.809C84.5004 95.4718 82.6633 96.7527 80.5481 97.6518C78.4327 98.5505 76.1506 99 73.7014 99C71.2075 99 68.8808 98.5617 66.7209 97.6853C64.5612 96.809 62.6908 95.5619 61.11 93.9438C59.5293 92.3258 58.2822 90.3822 57.3694 88.1124C56.4564 85.8428 56 83.3148 56 80.5281V51H63.0137V80.1237C63.0137 82.0114 63.3031 83.7303 63.8821 85.281Z" fill="white"/>
<path d="M105.096 51V68.191C106.654 66.618 108.458 65.3709 110.506 64.4495C112.555 63.528 114.781 63.0674 117.186 63.0674C119.68 63.0674 122.017 63.5392 124.2 64.483C126.382 65.4268 128.274 66.7078 129.877 68.3258C131.481 69.9439 132.75 71.8539 133.685 74.0561C134.62 76.2585 135.088 78.5956 135.088 81.0675C135.088 83.5393 134.62 85.8651 133.685 88.0448C132.75 90.2247 131.481 92.1236 129.877 93.7414C128.274 95.3595 126.382 96.6404 124.2 97.5842C122.017 98.528 119.68 98.9998 117.186 98.9998C114.781 98.9998 112.544 98.5392 110.473 97.6178C108.402 96.6965 106.587 95.4493 105.029 93.8762V98.1909H98.3491V51H105.096ZM105.864 85.7191C106.465 87.1574 107.3 88.4158 108.369 89.4945C109.437 90.5731 110.684 91.4272 112.109 92.0564C113.534 92.6856 115.071 93.0002 116.718 93.0002C118.322 93.0002 119.836 92.6856 121.261 92.0564C122.686 91.4272 123.921 90.5733 124.968 89.4945C126.014 88.416 126.849 87.1574 127.473 85.7191C128.096 84.2809 128.408 82.7304 128.408 81.0675C128.408 79.4045 128.096 77.8427 127.473 76.382C126.849 74.9213 126.014 73.6517 124.968 72.5731C123.921 71.4945 122.686 70.6517 121.261 70.045C119.835 69.4384 118.322 69.1348 116.718 69.1348C115.115 69.1348 113.601 69.4382 112.176 70.045C110.751 70.6519 109.504 71.4945 108.436 72.5731C107.367 73.6517 106.521 74.9213 105.897 76.382C105.274 77.8427 104.962 79.4045 104.962 81.0675C104.962 82.7304 105.263 84.2809 105.864 85.7191Z" fill="white"/>
<path d="M138.894 74.1237C139.785 71.9664 141.01 70.0676 142.568 68.4271C144.127 66.7867 145.975 65.4946 148.112 64.5508C150.25 63.607 152.566 63.1351 155.059 63.1351C157.509 63.1351 159.78 63.5846 161.873 64.4833C163.966 65.3823 165.769 66.6295 167.283 68.225C168.797 69.8204 169.978 71.7082 170.823 73.8879C171.67 76.0677 172.093 78.4385 172.093 81.0004V83.2251H144.372C144.594 84.6184 145.04 85.9105 145.708 87.1013C146.376 88.2923 147.211 89.3261 148.213 90.2025C149.215 91.079 150.35 91.7645 151.619 92.2587C152.888 92.753 154.235 93.0003 155.661 93.0003C159.713 93.0003 162.986 91.3149 165.48 87.944L170.356 91.5844C168.664 93.8766 166.571 95.6744 164.077 96.9777C161.583 98.281 158.778 98.9327 155.661 98.9327C153.122 98.9327 150.751 98.4831 148.547 97.5844C146.342 96.6856 144.428 95.4271 142.802 93.809C141.177 92.1909 139.897 90.2921 138.961 88.1124C138.026 85.9327 137.559 83.5618 137.559 81.0001C137.558 78.5732 138.004 76.281 138.894 74.1237ZM148.279 71.4607C146.387 73.0562 145.129 75.1798 144.505 77.8315H165.279C164.7 75.1798 163.465 73.0562 161.572 71.4607C159.679 69.8653 157.464 69.0675 154.926 69.0675C152.387 69.0675 150.172 69.8653 148.279 71.4607Z" fill="white"/>
<path d="M184.717 72.2359C183.292 73.8089 182.58 75.9437 182.58 78.6404V98.1912H175.833V63.809H182.513V68.0563C183.359 66.663 184.461 65.5618 185.819 64.7528C187.177 63.9437 188.792 63.5392 190.662 63.5392H193V69.8763H190.195C187.968 69.8764 186.142 70.6629 184.717 72.2359Z" fill="white"/>
</svg>
