<svg width="250" height="150" viewBox="0 0 250 150" fill="none" xmlns="http://www.w3.org/2000/svg">
<path d="M114.591 86.4812L106.377 63.6087C106.272 63.2925 106.116 62.875 106.116 62.5087C106.116 61.5175 106.954 60.5762 108.154 60.5762C109.201 60.5762 109.884 61.2562 110.196 62.2475L117.002 81.9562L123.857 62.1925C124.17 61.255 124.799 60.575 125.84 60.575H126.052C127.154 60.575 127.834 61.255 128.146 62.1925L134.945 81.9562L141.859 62.1437C142.12 61.3025 142.691 60.575 143.794 60.575C144.944 60.575 145.782 61.46 145.782 62.4562C145.782 62.8212 145.624 63.2375 145.521 63.5562L137.255 86.4812C136.832 87.6787 135.999 88.3075 135.055 88.3075H134.899C133.851 88.3075 133.065 87.6787 132.696 86.4812L125.95 67.045L119.145 86.4812C118.779 87.6787 117.991 88.3075 116.947 88.3075H116.837C115.846 88.3075 115.012 87.6787 114.591 86.4812Z" fill="white"/>
<path d="M174.465 62.57C174.465 61.4663 175.355 60.5238 176.454 60.5238C177.613 60.5238 178.5 61.415 178.5 62.57V67.2113C180.49 62.7038 184.904 60.5763 187.829 60.5763C189.04 60.5763 189.827 61.4663 189.827 62.6188C189.827 63.7213 189.097 64.5038 188.039 64.6613C182.795 65.29 178.502 69.2238 178.502 77.0363V86.2275C178.502 87.3288 177.664 88.27 176.512 88.27C175.358 88.27 174.467 87.375 174.467 86.2275L174.465 62.57Z" fill="white"/>
<path d="M202.778 88.525C195.481 88.525 189.524 82.8663 189.524 74.5675V74.46C189.524 66.7313 194.919 60.505 202.264 60.505C210.118 60.505 214.59 66.985 214.59 74.0963C214.59 75.1888 213.709 75.97 212.739 75.97H193.536C194.096 81.7763 198.151 85.0438 202.883 85.0438C206.171 85.0438 208.578 83.7463 210.533 81.93C210.841 81.6738 211.2 81.4663 211.665 81.4663C212.638 81.4663 213.411 82.245 213.411 83.1825C213.411 83.6475 213.206 84.1163 212.79 84.475C210.276 86.9113 207.294 88.525 202.778 88.525ZM210.635 73.0113C210.223 68.13 207.448 63.88 202.156 63.88C197.534 63.88 194.041 67.7688 193.534 73.0113H210.635Z" fill="white"/>
<path d="M145.854 80.125V80.02C145.854 74.325 150.559 71.29 157.403 71.29C160.854 71.29 163.309 71.76 165.718 72.4438V71.4988C165.718 66.6425 162.73 64.13 157.667 64.13C154.948 64.13 153.365 64.4763 151.375 65.3625C151.118 65.4675 150.854 65.5213 150.65 65.5213C149.709 65.5213 148.869 64.735 148.869 63.7963C148.869 62.9625 149.233 62.4463 149.969 62.12C152.63 60.965 154.637 60.5813 158.084 60.5813C161.897 60.5813 164.824 61.5713 166.807 63.5588C168.639 65.3875 169.58 68 169.58 71.4513V86.3613C169.58 87.5075 168.744 88.3463 167.64 88.3463C166.495 88.3463 165.719 87.5088 165.719 86.465V83.8875C163.834 86.3488 160.695 88.54 155.949 88.54C150.929 88.5363 145.854 85.665 145.854 80.125ZM165.769 78.0338V75.42C163.779 74.8463 161.11 74.27 157.82 74.27C152.758 74.27 149.932 76.4675 149.932 79.8613V79.965C149.932 83.3613 153.064 85.3475 156.727 85.3475C161.689 85.3475 165.769 82.315 165.769 78.0338Z" fill="white"/>
<path d="M41.379 62.2725C40.494 60.3325 38.3065 59.4538 36.264 60.3613C34.219 61.27 33.4665 63.5375 34.3902 65.4788L42.9665 84.12C44.3152 87.0413 45.7365 88.5725 48.404 88.5725C51.254 88.5725 52.4965 86.905 53.844 84.12C53.844 84.12 61.324 67.8325 61.399 67.6625C61.4752 67.49 61.7152 66.9638 62.4765 66.9688C63.1202 66.9725 63.6615 67.4863 63.6615 68.1763V84.1038C63.6615 86.5588 65.0227 88.5725 67.6427 88.5725C70.2602 88.5725 71.6752 86.5588 71.6752 84.1038V71.07C71.6752 68.5563 73.4765 66.925 75.9315 66.925C78.3865 66.925 80.0202 68.615 80.0202 71.07V84.1038C80.0202 86.5588 81.3865 88.5725 84.0015 88.5725C86.619 88.5725 88.0415 86.5588 88.0415 84.1038V71.07C88.0415 68.5563 89.8352 66.925 92.2915 66.925C94.7427 66.925 96.3827 68.615 96.3827 71.07V84.1038C96.3827 86.5588 97.7477 88.5725 100.365 88.5725C102.981 88.5725 104.401 86.5588 104.401 84.1038V69.27C104.401 63.8188 100.018 60 94.7427 60C89.474 60 86.174 63.645 86.174 63.645C84.4202 61.3713 82.0027 60.005 77.9115 60.005C73.594 60.005 69.8152 63.645 69.8152 63.645C68.0602 61.3713 65.0727 60.005 62.599 60.005C58.7727 60.005 55.734 61.6875 53.8802 65.9263L48.404 78.835L41.379 62.2725Z" fill="white"/>
<path d="M214.917 63.8874V63.865C214.917 62.0412 216.397 60.505 218.257 60.505C220.143 60.505 221.603 62.025 221.603 63.8512V63.865C221.603 65.695 220.127 67.2312 218.257 67.2312C216.37 67.2312 214.917 65.7162 214.917 63.8874ZM220.96 63.865V63.8562C220.96 62.3562 219.802 61.1262 218.257 61.1262C216.725 61.1262 215.549 62.3775 215.549 63.865V63.8825C215.549 65.3787 216.712 66.6087 218.257 66.6087C219.783 66.6087 220.96 65.36 220.96 63.865Z" fill="white"/>
<path d="M216.978 62.5425C216.978 62.3437 217.136 62.185 217.338 62.185H218.453C218.873 62.185 219.196 62.3037 219.398 62.5162C219.581 62.695 219.681 62.9537 219.681 63.2537V63.2637C219.681 63.7737 219.424 64.085 219.035 64.2487L219.528 64.8487C219.596 64.9387 219.643 65.0125 219.643 65.1225C219.643 65.32 219.475 65.45 219.305 65.45C219.146 65.45 219.039 65.3687 218.955 65.2662L218.261 64.3887H217.693V65.0937C217.693 65.2925 217.539 65.4487 217.339 65.4487C217.138 65.4487 216.979 65.2912 216.979 65.0937V62.5425H216.978ZM218.413 63.7575C218.76 63.7575 218.951 63.5762 218.951 63.3V63.2887C218.951 62.9875 218.746 62.825 218.4 62.825H217.689V63.7562H218.413V63.7575Z" fill="white"/>
</svg>
